# xmcd
#
# Track frame offsets: 
#        150
#        16173
#        28717
#        42743
#        58523
#        80399
#        94497
#        112994
#        131071
#        162380
#        181833
#        194428
#        216987
#        234353
#        246966
#        266507
#        280184
#        295459
#        315194
#
# Disc length: 4414 seconds
#
# Revision: 4
# Processed by: cddbd v1.5.2PL0 Copyright (c) Steve Scherf et al.
# Submitted via: ExactAudioCopyFreeDBPlugin 1.0
#
DISCID=12113c13
DTITLE=Milow - Milow
DYEAR=2010
DGENRE=Singer/Songwriter
TTITLE0=Ayo technology
TTITLE1=You don't know
TTITLE2=One of it
TTITLE3=Out of my hands
TTITLE4=Canada
TTITLE5=The ride
TTITLE6=Stephanie
TTITLE7=Coming of age
TTITLE8=The priest
TTITLE9=House by the creek
TTITLE10=Dreamers and renegades
TTITLE11=Herald of free enterprise
TTITLE12=Darkness ahead and behind
TTITLE13=Launching ships
TTITLE14=Born in the eighties
TTITLE15=Stepping stone
TTITLE16=Landslide
TTITLE17=Excuse to try
TTITLE18=Out of my hands (feat. Marit Larsen)
EXTD=YEAR: 2010
EXTT0=
EXTT1=
EXTT2=
EXTT3=
EXTT4=
EXTT5=
EXTT6=
EXTT7=
EXTT8=
EXTT9=
EXTT10=
EXTT11=
EXTT12=
EXTT13=
EXTT14=
EXTT15=
EXTT16=
EXTT17=
EXTT18=
PLAYORDER=
